# xmcd
#
# Track frame offsets: 
#        150
#        24958
#        43499
#        62867
#        67317
#        87096
#        112014
#        130969
#        158025
#        178124
#
# Disc length: 2768 seconds
#
# Revision: 0
# Processed by: cddbd v1.5.2PL0 Copyright (c) Steve Scherf et al.
# Submitted via: ExactAudioCopy v1.0b3
#
DISCID=900ace0a
DTITLE=Bones and Comfort - Mothersheep
DYEAR=2012
DGENRE=Rock
TTITLE0=We Choose Who Will Stand
TTITLE1=Tex Mex
TTITLE2=Isaac’s Wife Song
TTITLE3=Unbalanced
TTITLE4=Road Pizza
TTITLE5=My Crusade
TTITLE6=Take Some Pills
TTITLE7=No Country for Musicians
TTITLE8=Inhale
TTITLE9=Orange Blossoms and Four Swans
EXTD=
EXTT0=
EXTT1=
EXTT2=
EXTT3=
EXTT4=
EXTT5=
EXTT6=
EXTT7=
EXTT8=
EXTT9=
PLAYORDER=
